<svg preserveAspectRatio="none" width="100%" height="100%" overflow="visible" style="display: block;" viewBox="0 0 18 18" fill="none" xmlns="http://www.w3.org/2000/svg">
<g id="Group 865">
<circle id="Ellipse 2243" opacity="0.6" cx="9" cy="9" r="9" fill="var(--fill-0, #505050)"/>
<path id="Polygon 5" d="M12.707 8.81152C12.7561 8.93222 12.7561 9.06778 12.707 9.18848C12.6966 9.21394 12.6627 9.27502 12.5127 9.40039C12.3607 9.52737 12.1438 9.67812 11.8174 9.9043L8.72656 12.0449C8.3117 12.3323 8.02856 12.5284 7.80762 12.6533C7.58211 12.7808 7.49931 12.7872 7.47656 12.7861C7.32928 12.7792 7.19212 12.7079 7.10254 12.5908C7.08879 12.5728 7.0471 12.5008 7.02344 12.2422C7.00033 11.9895 7 11.6459 7 11.1416L7 6.8584C7 6.35409 7.00033 6.01048 7.02344 5.75781C7.0471 5.49923 7.08879 5.42715 7.10254 5.40918C7.19213 5.29207 7.32928 5.22081 7.47656 5.21387C7.49931 5.21283 7.58211 5.21919 7.80762 5.34668C8.02856 5.47161 8.31171 5.66766 8.72656 5.95508L11.8174 8.0957C12.1438 8.32188 12.3607 8.47263 12.5127 8.59961C12.6627 8.72498 12.6966 8.78606 12.707 8.81152Z" stroke="var(--stroke-0, white)"/>
</g>
</svg>
