<svg preserveAspectRatio="none" width="100%" height="100%" overflow="visible" style="display: block;" viewBox="0 0 32 32" fill="none" xmlns="http://www.w3.org/2000/svg">
<g id="0" opacity="0.6">
<circle id="Ellipse 30" cx="16" cy="16" r="4.75" fill="black"/>
<path id="Star 1" d="M14.1934 5.13379C14.9962 3.74259 17.0038 3.74259 17.8066 5.13379C18.7312 6.73669 20.618 7.51851 22.4053 7.03906C23.957 6.62264 25.3774 8.04301 24.9609 9.59473C24.4815 11.382 25.2633 13.2688 26.8662 14.1934C28.2574 14.9962 28.2574 17.0038 26.8662 17.8066C25.2633 18.7312 24.4815 20.618 24.9609 22.4053C25.3774 23.957 23.957 25.3774 22.4053 24.9609C20.618 24.4815 18.7312 25.2633 17.8066 26.8662C17.0038 28.2574 14.9962 28.2574 14.1934 26.8662C13.2688 25.2633 11.382 24.4815 9.59473 24.9609C8.04301 25.3774 6.62264 23.957 7.03906 22.4053C7.51851 20.618 6.73669 18.7312 5.13379 17.8066C3.74259 17.0038 3.74259 14.9962 5.13379 14.1934C6.73669 13.2688 7.51851 11.382 7.03906 9.59473C6.62264 8.04301 8.04301 6.62264 9.59473 7.03906C11.382 7.51851 13.2688 6.73669 14.1934 5.13379Z" stroke="black" stroke-width="2"/>
</g>
</svg>
